<svg xmlns="http://www.w3.org/2000/svg" width="50.102" height="411.876" viewBox="0 0 50.102 411.876">
  <defs>
    <style>
      .cls-1 {
        fill: none;
        stroke: #fff;
        stroke-width: 2px;
      }
    </style>
  </defs>
  <g id="bg-leefs" transform="translate(1.101 1.095)">
    <path id="Path_15170" data-name="Path 15170" class="cls-1" d="M388.464,26.441A23.466,23.466,0,0,1,409.685,47.9,23.462,23.462,0,0,1,388.464,26.441Zm-3.963,0A23.486,23.486,0,0,1,363.281,47.9,23.462,23.462,0,0,1,384.5,26.441Zm-47.247,0A23.462,23.462,0,0,1,358.476,47.9,23.475,23.475,0,0,1,337.255,26.441Zm-3.968,0A23.473,23.473,0,0,1,312.064,47.9,23.471,23.471,0,0,1,333.287,26.441Zm-47.819,0A23.469,23.469,0,0,1,306.691,47.9,23.484,23.484,0,0,1,285.468,26.441Zm-3.965,0A23.468,23.468,0,0,1,260.283,47.9,23.466,23.466,0,0,1,281.5,26.441Zm-47.244,0A23.464,23.464,0,0,1,255.485,47.9,23.482,23.482,0,0,1,234.259,26.441Zm-3.963,0A23.48,23.48,0,0,1,209.073,47.9,23.471,23.471,0,0,1,230.3,26.441Zm-49.362,0A23.468,23.468,0,0,1,202.155,47.9,23.475,23.475,0,0,1,180.934,26.441Zm-3.968,0A23.473,23.473,0,0,1,155.746,47.9,23.466,23.466,0,0,1,176.967,26.441Zm-47.239,0A23.457,23.457,0,0,1,150.948,47.9,23.471,23.471,0,0,1,129.727,26.441Zm-3.968,0A23.47,23.47,0,0,1,104.544,47.9,23.45,23.45,0,0,1,125.76,26.441Zm-49.355,0A23.475,23.475,0,0,1,97.623,47.9,23.448,23.448,0,0,1,76.405,26.441Zm-3.968,0A23.48,23.48,0,0,1,51.209,47.9,23.471,23.471,0,0,1,72.438,26.441Zm-47.242,0A23.478,23.478,0,0,1,46.419,47.9,23.464,23.464,0,0,1,25.2,26.441Zm-3.973,0A23.471,23.471,0,0,1,0,47.9,23.471,23.471,0,0,1,21.223,26.441ZM409.685,0a23.473,23.473,0,0,1-21.221,21.454A23.447,23.447,0,0,1,409.685,0Zm-46.4,0A23.472,23.472,0,0,1,384.5,21.454,23.468,23.468,0,0,1,363.281,0Zm-4.806,0a23.468,23.468,0,0,1-21.221,21.454A23.46,23.46,0,0,1,358.476,0ZM312.064,0a23.458,23.458,0,0,1,21.223,21.454A23.477,23.477,0,0,1,312.064,0Zm-5.373,0a23.472,23.472,0,0,1-21.223,21.454A23.478,23.478,0,0,1,306.691,0ZM260.283,0A23.463,23.463,0,0,1,281.5,21.454,23.469,23.469,0,0,1,260.283,0Zm-4.8,0a23.467,23.467,0,0,1-21.226,21.454A23.476,23.476,0,0,1,255.485,0ZM209.073,0A23.474,23.474,0,0,1,230.3,21.454,23.474,23.474,0,0,1,209.073,0Zm-6.919,0a23.471,23.471,0,0,1-21.221,21.454A23.469,23.469,0,0,1,202.155,0ZM155.746,0a23.467,23.467,0,0,1,21.221,21.454A23.469,23.469,0,0,1,155.746,0Zm-4.8,0a23.46,23.46,0,0,1-21.221,21.454A23.465,23.465,0,0,1,150.948,0Zm-46.4,0A23.464,23.464,0,0,1,125.76,21.454,23.453,23.453,0,0,1,104.544,0ZM97.623,0A23.478,23.478,0,0,1,76.405,21.454,23.442,23.442,0,0,1,97.623,0ZM51.209,0A23.474,23.474,0,0,1,72.438,21.454,23.474,23.474,0,0,1,51.209,0Zm-4.79,0A23.481,23.481,0,0,1,25.2,21.454,23.458,23.458,0,0,1,46.419,0ZM0,0A23.465,23.465,0,0,1,21.223,21.454,23.474,23.474,0,0,1,0,0Z" transform="translate(0 409.685) rotate(-90)"/>
  </g>
</svg>
