<svg xmlns="http://www.w3.org/2000/svg" width="66.638" height="66.359" viewBox="0 0 66.638 66.359">
  <path id="Path_17953" data-name="Path 17953" d="M517.669,75.893a32.924,32.924,0,0,0-29.993-29.866,32.916,32.916,0,0,0,29.993,29.866m5.55,0a32.917,32.917,0,0,0,29.994-29.866,32.919,32.919,0,0,0-29.994,29.866M487.676,111.34a32.923,32.923,0,0,0,29.993-29.866,32.915,32.915,0,0,0-29.993,29.866m65.537,0a32.922,32.922,0,0,0-29.994-29.866,32.926,32.926,0,0,0,29.994,29.866" transform="translate(-487.126 -45.479)" fill="none" stroke="#199c81" stroke-miterlimit="10" stroke-width="1"/>
</svg>
